<?xml version="1.0" standalone="no"?><!DOCTYPE svg PUBLIC "-//W3C//DTD SVG 1.1//EN" "http://www.w3.org/Graphics/SVG/1.1/DTD/svg11.dtd"><svg t="1585375365420" class="icon" viewBox="0 0 1024 1024" version="1.1" xmlns="http://www.w3.org/2000/svg" p-id="2178" xmlns:xlink="http://www.w3.org/1999/xlink" width="200" height="200"><defs><style type="text/css"></style></defs><path d="M979.2 552.533333c-2.133333-32-4.266667-68.266667-4.266667-136.533333 0-38.4-25.6-68.266667-61.866666-70.4-10.666667 0-19.2 0-27.733334 2.133333v-46.933333c0-38.4-32-70.4-70.4-70.4-10.666667 0-19.2 2.133333-27.733333 6.4-6.4-32-34.133333-55.466667-68.266667-55.466667-38.4 0-70.4 32-70.4 70.4v17.066667c-8.533333-4.266667-17.066667-6.4-27.733333-6.4-38.4 0-70.4 32-70.4 70.4v294.4c-10.666667-19.2-21.333333-40.533333-40.533333-53.333333-53.333333-38.4-108.8-4.266667-110.933334-4.266667l-12.8 8.533333 4.266667 14.933334c2.133333 6.4 14.933333 55.466667 49.066667 142.933333 32 81.066667 72.533333 121.6 100.266666 153.6 27.733333 27.733333 40.533333 42.666667 40.533334 70.4h42.666666c0-44.8-25.6-70.4-53.333333-100.266667-27.733333-29.866667-64-66.133333-91.733333-138.666666-21.333333-53.333333-36.266667-96-42.666667-121.6 12.8-4.266667 32-4.266667 49.066667 8.533333 10.666667 8.533333 21.333333 27.733333 29.866666 44.8 8.533333 17.066667 17.066667 34.133333 29.866667 44.8 8.533333 6.4 19.2 8.533333 23.466667 8.533333l23.466666 2.133334V334.933333c0-14.933333 12.8-27.733333 27.733334-27.733333s27.733333 12.8 27.733333 27.733333V576h42.666667V253.866667c0-14.933333 12.8-27.733333 27.733333-27.733334 14.933333 0 27.733333 12.8 27.733333 27.733334V576h42.666667V302.933333c0-14.933333 12.8-27.733333 27.733333-27.733333s27.733333 12.8 27.733334 27.733333v290.133334h42.666666v-198.4c6.4-4.266667 14.933333-6.4 25.6-6.4 19.2 2.133333 21.333333 19.2 21.333334 27.733333 0 70.4 2.133333 106.666667 4.266666 138.666667 2.133333 27.733333 2.133333 51.2 2.133334 87.466666 0 136.533333-17.066667 187.733333-29.866667 228.266667-8.533333 27.733333-17.066667 51.2-17.066667 91.733333h42.666667c0-32 6.4-51.2 14.933333-76.8 14.933333-42.666667 34.133333-98.133333 34.133334-241.066666-2.133333-40.533333-2.133333-66.133333-4.266667-91.733334zM160 307.2h76.8v-42.666667H160l12.8-12.8c8.533333-8.533333 8.533333-21.333333 0-29.866666s-21.333333-8.533333-29.866667 0l-49.066666 49.066666c-4.266667 4.266667-6.4 8.533333-6.4 14.933334s2.133333 10.666667 6.4 14.933333l49.066666 49.066667c4.266667 4.266667 10.666667 6.4 14.933334 6.4s10.666667-2.133333 14.933333-6.4c8.533333-8.533333 8.533333-21.333333 0-29.866667l-12.8-12.8zM443.733333 264.533333h-76.8v42.666667h76.8l-12.8 12.8c-8.533333 8.533333-8.533333 21.333333 0 29.866667 4.266667 4.266667 10.666667 6.4 14.933334 6.4s10.666667-2.133333 14.933333-6.4l49.066667-49.066667c8.533333-8.533333 8.533333-21.333333 0-29.866667l-49.066667-49.066666c-8.533333-8.533333-21.333333-8.533333-29.866667 0s-8.533333 21.333333 0 29.866666l12.8 12.8zM268.8 157.866667l12.8-12.8v76.8h42.666667V145.066667l12.8 12.8c4.266667 4.266667 10.666667 6.4 14.933333 6.4s10.666667-2.133333 14.933333-6.4c8.533333-8.533333 8.533333-21.333333 0-29.866667l-49.066666-49.066667c-8.533333-8.533333-21.333333-8.533333-29.866667 0L238.933333 128c-8.533333 8.533333-8.533333 21.333333 0 29.866667 8.533333 6.4 21.333333 6.4 29.866667 0zM334.933333 416l-12.8 12.8v-76.8h-42.666666v76.8l-12.8-12.8c-8.533333-8.533333-21.333333-8.533333-29.866667 0s-8.533333 21.333333 0 29.866667l49.066667 49.066666c4.266667 4.266667 10.666667 6.4 14.933333 6.4s10.666667-2.133333 14.933333-6.4l49.066667-49.066666c8.533333-8.533333 8.533333-21.333333 0-29.866667s-21.333333-8.533333-29.866667 0z" p-id="2179" fill="#ffffff"></path></svg>